<?xml version="1.0" standalone="no"?>
<!DOCTYPE svg PUBLIC "-//W3C//DTD SVG 20010904//EN"
 "http://www.w3.org/TR/2001/REC-SVG-20010904/DTD/svg10.dtd">
<svg version="1.0" xmlns="http://www.w3.org/2000/svg"
 width="591.000000pt" height="164.000000pt" viewBox="0 0 591.000000 164.000000"
 preserveAspectRatio="xMidYMid meet">
<metadata>
Created by potrace 1.16, written by Peter Selinger 2001-2019
</metadata>
<g transform="translate(0.000000,164.000000) scale(0.100000,-0.100000)"
fill="#000000" stroke="none">
<path d="M288 1026 c-36 -24 -38 -24 -38 -6 0 16 -7 20 -35 20 l-35 0 0 -220
0 -220 35 0 35 0 0 145 c0 186 15 226 87 241 23 4 36 0 59 -19 l29 -25 3 -171
3 -171 34 0 34 0 3 159 c3 143 5 163 24 187 40 54 118 53 143 -2 7 -15 11 -87
11 -184 l0 -160 35 0 35 0 0 163 c0 178 -8 222 -45 257 -48 45 -174 34 -207
-19 -12 -20 -13 -20 -45 11 -46 44 -113 50 -165 14z"/>
<path d="M1532 1037 c-91 -34 -146 -115 -146 -217 0 -97 39 -162 124 -206 46
-24 151 -25 203 -2 35 16 37 20 37 63 l0 45 -42 -30 c-34 -25 -50 -30 -99 -30
-53 0 -63 3 -97 35 -73 65 -79 165 -15 236 63 70 149 75 223 13 l30 -26 0 47
c0 44 -1 47 -42 65 -48 22 -126 25 -176 7z"/>
<path d="M1992 1024 c-162 -82 -170 -309 -15 -401 40 -24 59 -28 118 -28 47 0
81 6 103 18 29 16 32 22 32 64 l0 46 -22 -20 c-37 -33 -64 -43 -116 -43 -60 0
-109 29 -134 80 -20 40 -24 120 -7 153 50 98 167 124 246 54 l34 -30 -3 49
c-3 43 -7 51 -33 63 -16 8 -57 17 -90 19 -50 3 -69 -1 -113 -24z"/>
<path d="M2460 1028 c-117 -63 -147 -254 -57 -363 72 -88 204 -98 284 -23 l23
21 0 -31 c0 -30 2 -32 35 -32 l35 0 0 220 0 220 -35 0 c-32 0 -35 -2 -35 -30
l0 -31 -40 33 c-34 27 -51 33 -103 36 -51 3 -70 -1 -107 -20z m190 -66 c42
-31 72 -100 66 -154 -11 -98 -62 -148 -152 -148 -62 0 -98 24 -125 84 -42 93
-9 193 76 232 37 17 100 10 135 -14z"/>
</g>
</svg>
