<?xml version="1.0" encoding="utf-8"?>
<!-- Generator: Adobe Illustrator 16.0.0, SVG Export Plug-In . SVG Version: 6.00 Build 0)  -->
<!DOCTYPE svg PUBLIC "-//W3C//DTD SVG 1.1//EN" "http://www.w3.org/Graphics/SVG/1.1/DTD/svg11.dtd">
<svg version="1.1" id="Capa_1" xmlns="http://www.w3.org/2000/svg" xmlns:xlink="http://www.w3.org/1999/xlink" x="0px" y="0px"
	 width="400px" height="400px" viewBox="0 0 400 400" enable-background="new 0 0 400 400" xml:space="preserve">
<g>
	<polygon fill-rule="evenodd" clip-rule="evenodd" fill="#FFFFFF" points="103,104 295.756,104 295.756,296.756 103,296.756 
		103,104 	"/>
	<path fill-rule="evenodd" clip-rule="evenodd" fill="#00508B" d="M153.971,148.046l-0.198,28.689
		c0,12.069-7.123,16.619-16.62,16.619c-8.31,0-18.796-3.561-18.796-16.026v-29.282c0-1.583-0.989-2.572-2.176-3.166h13.454
		c-0.989,0.594-2.176,1.583-2.176,3.166v29.48c0,4.946,1.78,11.871,10.882,11.871c8.31,0,11.277-5.54,11.277-12.464v-28.887
		c0-1.583-0.989-2.572-1.979-3.166h8.112C154.762,145.474,153.971,146.463,153.971,148.046L153.971,148.046z"/>
	<path fill-rule="evenodd" clip-rule="evenodd" fill="#00508B" d="M172.964,193.354c-6.331,0-11.08-2.176-13.454-3.363
		l-0.395-11.871c1.384,4.945,5.539,11.673,12.86,11.673c6.924,0,9.101-5.144,9.101-8.507c0-6.728-6.133-7.717-12.465-11.081
		c-6.529-3.561-9.299-7.32-9.299-12.662c0-9.497,8.903-13.454,15.235-13.454c2.374,0,7.123,0.594,10.684,2.77l0.198,10.289
		c-0.99-3.759-4.947-9.299-11.673-9.299c-5.343,0-7.321,3.759-7.321,6.727c0,4.353,2.968,5.936,9.497,8.903
		c6.529,3.166,13.454,5.342,13.454,15.235C189.386,187.418,181.67,193.354,172.964,193.354L172.964,193.354z"/>
	<path fill-rule="evenodd" clip-rule="evenodd" fill="#00508B" d="M211.942,192.761h-18.005c0.989-0.792,1.781-1.781,1.781-3.166
		v-41.549c0-1.583-0.792-2.572-1.781-3.166h18.598c23.148,0,27.699,16.422,27.699,23.149
		C240.234,180.296,230.936,192.761,211.942,192.761L211.942,192.761z M211.15,148.442c-1.78,0-5.342,0-6.529,0.197v40.363
		c1.781,0,4.353,0,5.738,0c15.828,0,20.181-10.685,20.181-20.973C230.54,159.719,225.593,148.442,211.15,148.442L211.15,148.442z"/>
	<path fill-rule="evenodd" clip-rule="evenodd" fill="#00508B" d="M267.538,192.761c1.781-0.989,2.177-1.979,1.781-3.562
		c-0.198-0.593-2.177-4.946-4.155-9.695h-17.016c-2.176,4.749-3.957,8.903-3.957,9.695c-0.594,1.583-0.396,2.572,1.583,3.562h-9.695
		c1.979-1.385,2.572-2.176,3.364-3.562c1.188-2.572,19.785-45.704,19.785-45.704s18.598,43.132,19.785,45.704
		c0.791,1.583,1.188,2.176,3.562,3.562H267.538L267.538,192.761z M256.458,158.73c0,0-4.748,11.871-6.925,17.016h14.048
		C260.415,168.029,256.458,158.73,256.458,158.73L256.458,158.73z"/>
	<path fill-rule="evenodd" clip-rule="evenodd" fill="#345F4D" d="M280.399,199.487c0,0-102.093-2.572-162.438,29.679
		c0,0,64.104-25.326,162.438-22.951V199.487L280.399,199.487z"/>
	<path fill-rule="evenodd" clip-rule="evenodd" fill="#345F4D" d="M117.961,199.487c0,0,34.427,0.199,55.795,8.31
		c0,0-43.923-3.76-55.795-1.779V199.487L117.961,199.487z"/>
	<path fill-rule="evenodd" clip-rule="evenodd" fill="#345F4D" d="M117.961,210.566c0,0,24.534-0.988,39.373,0.396
		c0,0-35.811,4.354-39.373,6.133V210.566L117.961,210.566z"/>
	<path fill-rule="evenodd" clip-rule="evenodd" fill="#345F4D" d="M263.581,211.754h-0.594
		c-29.678,0.594-91.803,4.156-145.026,22.951v22.555h162.635v-45.506C280.597,211.754,274.265,211.557,263.581,211.754
		L263.581,211.754z"/>
</g>
</svg>
